#N canvas 660 419 744 548 12;
#X floatatom 44 62 5 0 0 0 - - -;
#X obj 44 86 mtof;
#X obj 148 121 * 2;
#X obj 206 121 * 3;
#X obj 265 119 * 4;
#X obj 324 118 * 5;
#X obj 373 118 * 6;
#X obj 428 117 * 7;
#X obj 463 117 * 8;
#X obj 45 200 osc~;
#X obj 114 200 osc~;
#X obj 179 200 osc~;
#X obj 242 200 osc~;
#X obj 285 200 osc~;
#X obj 350 200 osc~;
#X obj 419 200 osc~;
#X obj 482 200 osc~;
#X obj 42 276 *~;
#X obj 107 276 *~;
#X obj 176 276 *~;
#X obj 241 276 *~;
#X obj 286 276 *~;
#X obj 352 276 *~;
#X obj 421 276 *~;
#X obj 486 276 *~;
#X obj 62 231 r a1;
#X obj 134 231 r a2;
#X obj 202 231 r a3;
#X obj 253 231 r a4;
#X obj 307 231 r a5;
#X obj 367 231 r a6;
#X obj 438 231 r a7;
#X obj 514 231 r a8;
#X obj 44 18 inlet;
#X obj 181 399 outlet~;
#X obj 181 336 *~ 1;
#X connect 0 0 1 0;
#X connect 1 0 2 0;
#X connect 1 0 3 0;
#X connect 1 0 4 0;
#X connect 1 0 5 0;
#X connect 1 0 6 0;
#X connect 1 0 7 0;
#X connect 1 0 8 0;
#X connect 1 0 9 0;
#X connect 2 0 10 0;
#X connect 3 0 11 0;
#X connect 4 0 12 0;
#X connect 5 0 13 0;
#X connect 6 0 14 0;
#X connect 7 0 15 0;
#X connect 8 0 16 0;
#X connect 9 0 17 0;
#X connect 10 0 18 0;
#X connect 11 0 19 0;
#X connect 12 0 20 0;
#X connect 13 0 21 0;
#X connect 14 0 22 0;
#X connect 15 0 23 0;
#X connect 16 0 24 0;
#X connect 17 0 35 0;
#X connect 18 0 35 0;
#X connect 19 0 35 0;
#X connect 20 0 35 0;
#X connect 21 0 35 0;
#X connect 22 0 35 0;
#X connect 23 0 35 0;
#X connect 24 0 35 0;
#X connect 25 0 17 1;
#X connect 26 0 18 1;
#X connect 27 0 19 1;
#X connect 28 0 20 1;
#X connect 29 0 21 1;
#X connect 30 0 22 1;
#X connect 31 0 23 1;
#X connect 32 0 24 1;
#X connect 33 0 0 0;
#X connect 35 0 34 0;
