#N canvas 905 135 714 596 12;
#X obj 184 534 dac~;
#X obj 45 139 upf.gain~;
#X obj 35 280 upf.pan~;
#X obj 28 324 throw~ \$0-l_ch;
#X obj 153 324 throw~ \$0-r_ch;
#X obj 105 379 catch~ \$0-l_ch;
#X obj 257 381 catch~ \$0-r_ch, f 15;
#X obj 76 537 throw~ out_l;
#X obj 244 535 throw~ out_r;
#X obj 28 51 catch~ synth;
#X obj 173 481 *~ 1;
#X obj 218 481 *~ 1;
#X text 36 99 channel;
#X connect 1 0 2 0;
#X connect 2 0 3 0;
#X connect 2 1 4 0;
#X connect 5 0 10 0;
#X connect 6 0 11 0;
#X connect 9 0 1 0;
#X connect 10 0 0 0;
#X connect 10 0 7 0;
#X connect 11 0 0 1;
#X connect 11 0 8 0;
#X coords 0 -1 1 1 80 240 2 20 90;
