#N canvas 126 136 1411 892 12;
#X declare -path ./../abstractions;
#X declare -path ./../abstractions/drum_machine;
#X declare -path ./../abstractions/synth;
#X declare -path ./../abstractions/markov;
#X declare -path ./../externals/automatism;
#X obj 1034 18 declare -path ./../abstractions;
#X obj 1034 39 declare -path ./../abstractions/drum_machine;
#X obj 150 63 cnv 15 732 630 empty empty empty 20 12 0 14 -228856 -66577
0;
#X obj 1034 61 declare -path ./../abstractions/synth;
#N canvas 334 76 971 417 midi 0;
#X obj 274 61 notein, f 16;
#X obj 274 114 pack 0 0;
#X obj 275 212 s midi_note;
#X obj 102 115 r midi_note_sequencer;
#X obj 363 114 r midi_note_markov;
#X obj 565 114 r midi_cc_markov;
#X obj 449 289 s pan_midi_internal;
#X obj 594 290 s wet_internal;
#X obj 565 155 route 0 1 2;
#X obj 703 290 s feed_internal;
#X connect 0 0 1 0;
#X connect 0 1 1 1;
#X connect 1 0 2 0;
#X connect 3 0 2 0;
#X connect 4 0 2 0;
#X connect 5 0 8 0;
#X connect 8 0 6 0;
#X connect 8 1 7 0;
#X connect 8 2 9 0;
#X restore 1109 164 pd midi;
#N canvas 0 23 1086 658 engine 0;
#X obj 41 48 r midi_note;
#X obj 42 101 upf.midi_route, f 47;
#X obj 42 164 upf.voice~;
#X obj 123 165 upf.voice~;
#X obj 205 165 upf.voice~;
#X obj 286 165 upf.voice~;
#X obj 368 165 upf.voice~;
#X obj 363 532 throw~ synth;
#X obj 198 264 upf.delay~;
#X obj 501 34 loadbang;
#X msg 500 67 \; pd dsp 1;
#X obj 362 374 granular-delay;
#X obj 573 211 r test_osc;
#X obj 573 239 * 127;
#X obj 573 269 lin_smooth;
#X connect 0 0 1 0;
#X connect 1 0 2 0;
#X connect 1 1 3 0;
#X connect 1 2 4 0;
#X connect 1 3 5 0;
#X connect 1 4 6 0;
#X connect 2 0 8 0;
#X connect 3 0 8 0;
#X connect 4 0 8 0;
#X connect 5 0 8 0;
#X connect 6 0 8 0;
#X connect 8 0 11 0;
#X connect 9 0 10 0;
#X connect 11 0 7 0;
#X connect 11 1 7 0;
#X connect 12 0 13 0;
#X connect 13 0 14 0;
#X connect 14 0 11 5;
#X restore 1035 164 pd engine;
#X obj 1034 83 declare -path ./../abstractions/markov;
#X obj 547 569 upf.master_output~;
#X text 9 7 Bertola / Ronchini / Fernandez https://github.com/marcobertola/upf-cmc
, f 82;
#X obj 155 67 cnv 15 720 290 empty empty empty 20 12 0 14 -66577 -66577
0;
#X obj 160 73 cnv 15 710 278 empty empty empty 20 12 0 14 -261234 -66577
0;
#X obj 574 364 upf.sequencer_mixer;
#X obj 161 183 upf.additive_ui;
#X obj 650 78 upf.envelope_ui;
#X obj 738 78 upf.delay_ui;
#X obj 329 183 upf.fm_ui;
#X obj 418 183 upf.synth_mode;
#X obj 162 78 markov_2nd_order;
#X obj 374 78 random_control;
#X obj 564 183 upf.measure_selector_markov;
#X obj 155 360 cnv 15 348 328 empty empty empty 20 12 0 14 -33289 -66577
0;
#X obj 506 364 upf.mixer_synth;
#X obj 159 364 cnv 15 340 320 empty empty empty 20 12 0 14 -261682
-66577 0;
#X obj 161 415 upf.step_selector;
#X obj 377 415 upf.measure_selector;
#X obj 162 369 upf.sequencer_gui;
#X obj 162 580 upf.sampler_4_sequencer_v2;
#X text 377 376 Step seqencer;
#X obj 1034 106 declare -path ./../externals/automatism;
#N canvas 886 374 704 557 osc 0;
#X msg 30 68 listen 0;
#X msg 17 16 listen 54321;
#X obj 17 94 netreceive -u -b 54321;
#X obj 32 116 oscparse;
#X obj 32 145 list trim;
#X obj 37 316 tgl 15 0 empty empty empty 17 7 0 10 -262144 -1 -1 0
1;
#X floatatom 423 312 5 0 0 0 - - -;
#X obj 166 352 unpack 0 0;
#X floatatom 166 378 5 0 0 0 - - -;
#X floatatom 233 391 5 0 0 0 - - -;
#X obj 165 311 route 1;
#X obj 294 309 hradio 15 1 0 3 empty empty empty 0 -8 0 10 -262144
-1 -1 0;
#X obj 37 350 s in_play;
#X obj 168 456 s wet_internal;
#X obj 274 445 s feed_internal;
#X obj 403 443 s in_synth_mode;
#X obj 425 378 s in_volume;
#X obj 36 277 route play delay switch_synth volume, f 74;
#X obj 166 419 sel 0;
#X connect 0 0 2 0;
#X connect 1 0 2 0;
#X connect 2 0 3 0;
#X connect 3 0 4 0;
#X connect 4 0 17 0;
#X connect 5 0 12 0;
#X connect 6 0 16 0;
#X connect 7 0 8 0;
#X connect 7 1 9 0;
#X connect 8 0 18 0;
#X connect 9 0 14 0;
#X connect 10 0 7 0;
#X connect 11 0 15 0;
#X connect 17 0 5 0;
#X connect 17 1 10 0;
#X connect 17 2 11 0;
#X connect 17 3 6 0;
#X connect 18 1 13 0;
#X restore 1168 165 pd osc;
