#N canvas 330 215 1237 763 12;
#X declare -path ./../abstractions;
#X declare -path ./../abstractions/drum_machine;
#X declare -path ./../abstractions/synth;
#X declare -path ./../externals;
#X declare -path ./../abstractions/markov;
#X obj 916 18 declare -path ./../abstractions;
#X obj 916 39 declare -path ./../abstractions/drum_machine;
#X obj 52 59 cnv 15 732 530 empty empty empty 20 12 0 14 -261682 -66577
0;
#X obj 916 61 declare -path ./../abstractions/synth;
#N canvas 334 76 777 418 midi 0;
#X obj 274 61 notein, f 16;
#X obj 274 114 pack 0 0;
#X obj 275 212 s midi_note;
#X obj 102 115 r midi_note_sequencer;
#X obj 363 114 r midi_note_markov;
#X obj 565 114 r midi_cc_markov;
#X obj 565 155 unpack 0 0;
#X obj 564 211 s pan_midi_internal;
#X connect 0 0 1 0;
#X connect 0 1 1 1;
#X connect 1 0 2 0;
#X connect 3 0 2 0;
#X connect 4 0 2 0;
#X connect 5 0 6 0;
#X connect 6 0 7 0;
#X restore 725 11 pd midi;
#N canvas 0 23 702 463 engine 0;
#X obj 41 48 r midi_note;
#X obj 42 101 upf.midi_route, f 47;
#X obj 42 164 upf.voice~;
#X obj 123 165 upf.voice~;
#X obj 205 165 upf.voice~;
#X obj 286 165 upf.voice~;
#X obj 368 165 upf.voice~;
#X obj 192 335 throw~ synth;
#X obj 192 290 upf.delay~;
#X connect 0 0 1 0;
#X connect 1 0 2 0;
#X connect 1 1 3 0;
#X connect 1 2 4 0;
#X connect 1 3 5 0;
#X connect 1 4 6 0;
#X connect 2 0 8 0;
#X connect 3 0 8 0;
#X connect 4 0 8 0;
#X connect 5 0 8 0;
#X connect 6 0 8 0;
#X connect 8 0 7 0;
#X restore 651 11 pd engine;
#X obj 916 106 declare -path ./../externals;
#X obj 916 83 declare -path ./../abstractions/markov;
#X obj 64 258 upf.step_selector;
#X obj 288 258 upf.measure_selector;
#X obj 469 465 upf.master_output~;
#X obj 168 208 upf.sequencer_gui;
#X obj 64 424 upf.additive_ui;
#X obj 692 220 upf.mixer_synth;
#X obj 468 220 upf.envelope_ui;
#X obj 558 220 upf.delay_ui;
#X obj 233 424 upf.fm_ui;
#X obj 383 257 upf.seq_to_midi;
#X obj 323 425 upf.synth_mode;
#X text 9 7 Bertola / Ronchini / Fernandez https://github.com/marcobertola/upf-cmc
, f 82;
#X obj 56 67 cnv 15 720 130 empty empty empty 20 12 0 14 -66577 -66577
0;
#X obj 61 72 cnv 15 710 120 empty empty empty 20 12 0 14 -261234 -66577
0;
#X obj 63 83 markov_2nd_order;
#X obj 267 83 random_control;
#X text 225 207 transport;
