#N canvas 328 23 812 385 10;
#X obj 44 161 cos~;
#X obj 117 161 cos~;
#X obj 110 79 hsl 30 15 0 0.25 0 0 empty empty empty -2 -8 0 10 -162280
-1 -1 1450 1;
#X obj 117 130 + 0.75;
#X obj 29 198 *~;
#X obj 104 205 *~;
#X obj 117 19 loadbang;
#X msg 117 43 0.125;
#X obj 24 271 outlet~;
#X obj 104 270 outlet~;
#X obj 25 17 inlet~;
#X connect 0 0 4 1;
#X connect 1 0 5 1;
#X connect 2 0 0 0;
#X connect 2 0 3 0;
#X connect 3 0 1 0;
#X connect 4 0 8 0;
#X connect 5 0 9 0;
#X connect 6 0 7 0;
#X connect 7 0 2 0;
#X connect 10 0 4 0;
#X connect 10 0 5 0;
#X coords 0 -1 1 1 50 20 2 100 76;
