#N canvas 328 186 593 724 12;
#X declare -path ./../abstractions;
#X declare -path ./../abstractions/drum_machine;
#X text 9 7 https://github.com/marcobertola/upf-cmc;
#X obj 11 655 declare -path ./../abstractions;
#X obj 11 676 declare -path ./../abstractions/drum_machine;
#X obj 13 42 cnv 15 500 600 empty empty empty 20 12 0 14 -261682 -66577
0;
#X obj 66 143 hradio 25 1 0 8 empty empty empty 0 -8 0 10 -162280 -1
-1 5;
#X obj 64 74 tgl 20 0 s_start empty Start_sequencer -40 -10 0 12 -262144
-1 -1 1 1;
#X msg 300 73 reset;
#N canvas 676 221 549 463 sequencer 0;
#X obj 119 37 inlet;
#X obj 170 36 inlet;
#X obj 308 28 inlet;
#X obj 123 403 outlet;
#X obj 123 340 metro;
#X obj 195 102 loadbang;
#X msg 195 126 120;
#X obj 291 166 s bpm;
#X obj 173 166 upf.bpm_to_ms;
#X obj 123 365 upf.counter 8;
#X obj 154 289 /;
#X obj 226 212 r measure;
#X obj 226 242 t b f;
#X connect 0 0 4 0;
#X connect 1 0 8 0;
#X connect 2 0 9 0;
#X connect 4 0 9 0;
#X connect 5 0 6 0;
#X connect 6 0 7 0;
#X connect 6 0 8 0;
#X connect 8 0 10 0;
#X connect 9 0 3 0;
#X connect 10 0 4 1;
#X connect 11 0 12 0;
#X connect 12 0 10 0;
#X connect 12 1 10 1;
#X restore 65 107 pd sequencer;
#X f 34;
#X floatatom 182 78 5 0 0 2 Bpm bpm -;
#X obj 61 173 upf.step_selector;
#X obj 374 302 upf.sampler_4_sequencer;
#X obj 61 301 upf.sequencer_mixer;
#X obj 282 138 upf.measure_selector;
#X obj 78 505 upf.master_output~;
#X connect 4 0 9 0;
#X connect 5 0 7 0;
#X connect 6 0 7 2;
#X connect 7 0 4 0;
#X connect 8 0 7 1;
