#N canvas 429 140 984 798 12;
#X declare -path ./../abstractions;
#X declare -path ./../abstractions/drum_machine;
#X text 9 7 https://github.com/marcobertola/upf-cmc;
#X obj 11 655 declare -path ./../abstractions;
#X obj 11 676 declare -path ./../abstractions/drum_machine;
#X obj 37 40 cnv 15 470 600 empty empty empty 20 12 0 14 -261682 -66577
0;
#X obj 54 138 upf.step_selector;
#X obj 364 141 upf.sampler_4_sequencer;
#X obj 54 301 upf.sequencer_mixer;
#X obj 275 138 upf.measure_selector;
#X obj 54 504 upf.master_output~;
#X obj 55 92 upf.sequencer_gui;
#X text 54 65 DRUMS_ME;
#X text 277 104 tempo division;
#X text 12 714 TODO: Audio samples are now reloaded on realtime (very
bad and CPU consuming!). This was the consequence of a very quick implementation
of a simple "humanizer" (The first version loaded the audio samples
only during patch launch). Next improvement is to save/cache samples
in different tables and just switch the pointer while reading...defenetly
more CPU efficent, f 96;
