#N canvas 221 201 995 649 12;
#X declare -path ./../abstractions;
#X text 9 7 https://github.com/marcobertola/upf-cmc;
#X obj 53 156 hradio 15 1 0 8 empty empty empty 0 -8 0 10 -262144 -1
-1 6;
#X obj 52 75 tgl 20 0 s_start empty Start_sequencer -40 -10 0 12 -262144
-1 -1 0 1;
#X msg 287 74 reset;
#N canvas 676 221 500 354 sequencer 0;
#X obj 119 37 inlet;
#X obj 170 36 inlet;
#X obj 302 37 inlet;
#X obj 141 275 outlet;
#X obj 141 197 metro;
#X obj 195 102 loadbang;
#X msg 195 126 120;
#X obj 291 166 s bpm;
#X obj 173 166 upf.bpm_to_ms;
#X obj 141 237 upf.counter 8;
#X connect 0 0 4 0;
#X connect 1 0 8 0;
#X connect 2 0 9 0;
#X connect 4 0 9 0;
#X connect 5 0 6 0;
#X connect 6 0 7 0;
#X connect 6 0 8 0;
#X connect 8 0 4 1;
#X connect 9 0 3 0;
#X restore 52 108 pd sequencer;
#X f 34;
#X floatatom 169 79 5 0 0 2 Bpm bpm -;
#X obj 513 6 declare -path ./../abstractions;
#X obj 50 181 upf.step_selector;
#X obj 180 153 upf.sampler_4_sequencer;
#X obj 87 456 dac~;
#X obj 96 413 *~ 0.5;
#X obj 48 365 catch~ sign_00;
#X obj 165 365 catch~ sign_01;
#X connect 1 0 7 0;
#X connect 2 0 4 0;
#X connect 3 0 4 2;
#X connect 4 0 1 0;
#X connect 5 0 4 1;
#X connect 10 0 9 0;
#X connect 10 0 9 1;
#X connect 11 0 10 0;
#X connect 12 0 10 0;
