#N canvas 567 163 1094 684 12;
#X declare -path ./../abstractions;
#X declare -path ./../abstractions/drum_machine;
#X declare -path ./../abstractions/synth;
#X declare -path ./../externals;
#X text 9 7 https://github.com/marcobertola/upf-cmc;
#X obj 56 505 declare -path ./../abstractions;
#X obj 56 526 declare -path ./../abstractions/drum_machine;
#X obj 52 81 cnv 15 730 400 empty empty empty 20 12 0 14 -261682 -66577
0;
#X obj 63 147 upf.step_selector;
#X obj 288 147 upf.measure_selector;
#X obj 469 354 upf.master_output~;
#X obj 60 96 upf.sequencer_gui;
#X obj 56 548 declare -path ./../abstractions/synth;
#X obj 64 313 upf.additive_ui;
#X obj 692 109 upf.mixer_synth;
#X obj 468 109 upf.envelope_ui;
#N canvas 334 76 450 300 midi 0;
#X obj 149 54 notein, f 16;
#X obj 149 107 pack 0 0;
#X obj 149 149 s midi_note;
#X connect 0 0 1 0;
#X connect 0 1 1 1;
#X connect 1 0 2 0;
#X restore 718 86 pd midi;
#N canvas 0 23 702 463 engine 0;
#X obj 41 48 r midi_note;
#X obj 42 101 upf.midi_route, f 47;
#X obj 42 164 upf.voice~;
#X obj 123 165 upf.voice~;
#X obj 205 165 upf.voice~;
#X obj 286 165 upf.voice~;
#X obj 368 165 upf.voice~;
#X obj 192 335 throw~ synth;
#X obj 192 290 upf.delay~;
#X connect 0 0 1 0;
#X connect 1 0 2 0;
#X connect 1 1 3 0;
#X connect 1 2 4 0;
#X connect 1 3 5 0;
#X connect 1 4 6 0;
#X connect 2 0 8 0;
#X connect 3 0 8 0;
#X connect 4 0 8 0;
#X connect 5 0 8 0;
#X connect 6 0 8 0;
#X connect 8 0 7 0;
#X restore 646 85 pd engine;
#X obj 558 109 upf.delay_ui;
#X obj 233 313 upf.fm_ui;
#X obj 383 146 upf.seq_to_midi;
#X obj 323 314 upf.synth_mode;
#X text 50 54 Start sequencer or connect and setup your MIDI keyboard
;
#X obj 55 570 declare -path ./../externals;
