#N canvas 103 533 1411 892 12;
#X declare -path ./../abstractions;
#X declare -path ./../abstractions/drum_machine;
#X declare -path ./../abstractions/synth;
#X declare -path ./../abstractions/markov;
#X declare -path ./../externals/automatism;
#X obj 1034 18 declare -path ./../abstractions;
#X obj 1034 39 declare -path ./../abstractions/drum_machine;
#X obj 150 63 cnv 15 732 630 empty empty empty 20 12 0 14 -228856 -66577
0;
#X obj 1034 61 declare -path ./../abstractions/synth;
#N canvas 333 76 1027 419 midi 0;
#X obj 274 61 notein, f 16;
#X obj 274 114 pack 0 0;
#X obj 275 212 s midi_note;
#X obj 102 115 r midi_note_sequencer;
#X obj 363 114 r midi_note_markov;
#X obj 727 116 r midi_cc_markov;
#X obj 611 291 s pan_midi_internal;
#X obj 756 292 s wet_internal;
#X obj 727 157 route 0 1 2;
#X obj 865 292 s feed_internal;
#X obj 546 113 r client_note;
#X connect 0 0 1 0;
#X connect 0 1 1 1;
#X connect 1 0 2 0;
#X connect 3 0 2 0;
#X connect 4 0 2 0;
#X connect 8 0 6 0;
#X connect 8 1 7 0;
#X connect 8 2 9 0;
#X connect 10 0 2 0;
#X restore 1109 164 pd midi;
#N canvas 0 23 1086 658 engine 0;
#X obj 41 48 r midi_note;
#X obj 42 101 upf.midi_route, f 47;
#X obj 42 164 upf.voice~;
#X obj 123 165 upf.voice~;
#X obj 205 165 upf.voice~;
#X obj 286 165 upf.voice~;
#X obj 368 165 upf.voice~;
#X obj 363 532 throw~ synth;
#X obj 198 264 upf.delay~;
#X obj 501 34 loadbang;
#X msg 500 67 \; pd dsp 1;
#X obj 394 374 granular-delay;
#X obj 573 211 r test_osc;
#X obj 573 239 * 127;
#X obj 573 269 lin_smooth;
#X connect 0 0 1 0;
#X connect 1 0 2 0;
#X connect 1 1 3 0;
#X connect 1 2 4 0;
#X connect 1 3 5 0;
#X connect 1 4 6 0;
#X connect 2 0 8 0;
#X connect 3 0 8 0;
#X connect 4 0 8 0;
#X connect 5 0 8 0;
#X connect 6 0 8 0;
#X connect 8 0 7 0;
#X connect 9 0 10 0;
#X connect 12 0 13 0;
#X connect 13 0 14 0;
#X connect 14 0 11 5;
#X restore 1035 164 pd engine;
#X obj 1034 83 declare -path ./../abstractions/markov;
#X obj 547 569 upf.master_output~;
#X text 9 7 Bertola / Ronchini / Fernandez https://github.com/marcobertola/upf-cmc
, f 82;
#X obj 155 67 cnv 15 720 290 empty empty empty 20 12 0 14 -66577 -66577
0;
#X obj 160 73 cnv 15 710 278 empty empty empty 20 12 0 14 -261234 -66577
0;
#X obj 574 364 upf.sequencer_mixer;
#X obj 161 183 upf.additive_ui;
#X obj 650 78 upf.envelope_ui;
#X obj 738 78 upf.delay_ui;
#X obj 329 183 upf.fm_ui;
#X obj 418 183 upf.synth_mode;
#X obj 162 78 markov_2nd_order;
#X obj 374 78 random_control;
#X obj 564 183 upf.measure_selector_markov;
#X obj 155 360 cnv 15 348 328 empty empty empty 20 12 0 14 -33289 -66577
0;
#X obj 506 364 upf.mixer_synth;
#X obj 159 364 cnv 15 340 320 empty empty empty 20 12 0 14 -261682
-66577 0;
#X obj 161 415 upf.step_selector;
#X obj 377 415 upf.measure_selector;
#X obj 162 369 upf.sequencer_gui;
#X obj 162 580 upf.sampler_4_sequencer_v2;
#X text 377 376 Step seqencer;
#X obj 1034 106 declare -path ./../externals/automatism;
#N canvas 456 57 1114 950 osc 0;
#X obj 60 167 oscparse;
#X obj 60 196 list trim;
#X msg 45 67 listen 1337;
#X obj 45 145 netreceive -u -b 1337;
#X obj 45 29 loadbang;
#X obj 60 235 route values;
#X obj 99 510 unpack 0 0 0 0 0 0 0 0 0 0;
#X obj 99 678 makenote 100 1000;
#X obj 99 787 s client_note;
#X obj 99 723 pack 0 0;
#X obj 433 596 / 127;
#X obj 481 596 / 127;
#X obj 528 596 / 127;
#X obj 574 596 / 127;
#X obj 616 594 / 127;
#X obj 663 595 / 127;
#X obj 711 595 / 127;
#X obj 434 641 pack 0 0 0 0 0 0 0, f 41;
#X obj 435 698 s harmonics;
#X obj 99 455 queue 20;
#X obj 60 313 bng 15 250 50 0 empty empty empty 17 7 0 10 -262144 -1
-1;
#X obj 60 273 t b l, f 12;
#X obj 120 597 maxlib/scale 0 127 60 127 0;
#X obj 214 642 maxlib/scale 0 127 200 1000 0;
#X connect 0 0 1 0;
#X connect 1 0 5 0;
#X connect 2 0 3 0;
#X connect 3 0 0 0;
#X connect 4 0 2 0;
#X connect 5 0 21 0;
#X connect 6 0 7 0;
#X connect 6 1 22 0;
#X connect 6 2 23 0;
#X connect 6 3 10 0;
#X connect 6 4 11 0;
#X connect 6 5 12 0;
#X connect 6 6 13 0;
#X connect 6 7 14 0;
#X connect 6 8 15 0;
#X connect 6 9 16 0;
#X connect 7 0 9 0;
#X connect 7 1 9 1;
#X connect 9 0 8 0;
#X connect 10 0 17 0;
#X connect 11 0 17 1;
#X connect 12 0 17 2;
#X connect 13 0 17 3;
#X connect 14 0 17 4;
#X connect 15 0 17 5;
#X connect 16 0 17 6;
#X connect 17 0 18 0;
#X connect 19 0 6 0;
#X connect 20 0 19 0;
#X connect 21 0 20 0;
#X connect 21 1 19 0;
#X connect 22 0 7 1;
#X connect 23 0 7 2;
#X restore 1168 164 pd osc;
