#N canvas 158 136 1411 892 12;
#X declare -path ./../abstractions;
#X declare -path ./../abstractions/drum_machine;
#X declare -path ./../abstractions/synth;
#X declare -path ./../abstractions/markov;
#X declare -path ./../externals/automatism;
#X declare -path ./../abstractions/final;
#X obj 1034 18 declare -path ./../abstractions;
#X obj 1034 39 declare -path ./../abstractions/drum_machine;
#X obj 150 63 cnv 15 732 630 empty empty empty 20 12 0 14 -228856 -66577
0;
#X obj 1034 61 declare -path ./../abstractions/synth;
#N canvas 333 76 1027 419 midi 0;
#X obj 274 61 notein, f 16;
#X obj 274 114 pack 0 0;
#X obj 275 212 s midi_note;
#X obj 102 115 r midi_note_sequencer;
#X obj 363 114 r midi_note_markov;
#X obj 727 116 r midi_cc_markov;
#X obj 611 291 s pan_midi_internal;
#X obj 756 292 s wet_internal;
#X obj 727 157 route 0 1 2;
#X obj 865 292 s feed_internal;
#X obj 546 113 r client_note;
#X connect 0 0 1 0;
#X connect 0 1 1 1;
#X connect 1 0 2 0;
#X connect 3 0 2 0;
#X connect 4 0 2 0;
#X connect 8 0 6 0;
#X connect 8 1 7 0;
#X connect 8 2 9 0;
#X connect 10 0 2 0;
#X restore 1109 195 pd midi;
#N canvas 0 23 1042 440 engine 0;
#X obj 41 48 r midi_note;
#X obj 42 101 upf.midi_route, f 49;
#X obj 179 320 throw~ synth;
#X obj 179 246 upf.delay~;
#X obj 727 164 loadbang;
#X msg 726 197 \; pd dsp 1;
#X obj 42 164 upf.voices~;
#X obj 127 164 upf.voices~;
#X obj 211 165 upf.voices~;
#X obj 297 165 upf.voices~;
#X obj 382 165 upf.voices~;
#N canvas 0 23 679 502 antialiasing~ 0;
#X obj 21 269 *~ 0.125;
#X obj 21 292 rzero~ -1;
#X obj 21 315 rzero~ -1;
#X obj 21 338 rzero~ -1;
#X obj 204 29 block~ 1024 1 16;
#X obj 21 372 outlet~;
#X obj 20 166 rpole~ 0.87467;
#X obj 20 143 *~ 0.12532;
#X obj 20 189 *~ 0.01668;
#X obj 20 212 cpole~ 0.9293 0.10812;
#X obj 20 238 cpole~ 0.9293 -0.10812;
#X text 143 123 These objects make a 3-pole \, 3-zero Butterworth low-pass
filter with cutoff at 15kHz (assuming 16x44100 sample rate). The filter
was designed using the "buttercoef3" abstraction introduced in patch
H13.butterworth.pd in this series.;
#X obj 21 31 inlet~;
#X connect 0 0 1 0;
#X connect 1 0 2 0;
#X connect 2 0 3 0;
#X connect 3 0 5 0;
#X connect 6 0 8 0;
#X connect 7 0 6 0;
#X connect 8 0 9 0;
#X connect 9 0 10 0;
#X connect 9 1 10 1;
#X connect 10 0 0 0;
#X connect 12 0 7 0;
#X restore 179 282 pd antialiasing~;
#X obj 479 165 upf.meditation, f 17;
#X obj 477 322 throw~ med_l;
#X obj 595 322 throw~ med_r;
#X obj 479 98 r med_freeze;
#X obj 597 98 r med_tempo;
#X obj 703 99 r med_scale;
#X connect 0 0 1 0;
#X connect 1 0 6 0;
#X connect 1 1 7 0;
#X connect 1 2 8 0;
#X connect 1 3 9 0;
#X connect 1 4 10 0;
#X connect 3 0 11 0;
#X connect 4 0 5 0;
#X connect 6 0 3 0;
#X connect 7 0 3 0;
#X connect 8 0 3 0;
#X connect 9 0 3 0;
#X connect 10 0 3 0;
#X connect 11 0 2 0;
#X connect 12 0 13 0;
#X connect 12 1 14 0;
#X connect 15 0 12 0;
#X connect 16 0 12 1;
#X connect 17 0 12 2;
#X restore 1035 196 pd engine;
#X obj 1034 83 declare -path ./../abstractions/markov;
#X obj 359 370 upf.master_output~;
#X text 9 7 Bertola / Ronchini / Fernandez https://github.com/marcobertola/upf-cmc
, f 82;
#X obj 155 67 cnv 15 720 290 empty empty empty 20 12 0 14 -66577 -66577
0;
#X obj 160 73 cnv 15 710 278 empty empty empty 20 12 0 14 -261234 -66577
0;
#X obj 161 80 upf.envelope_ui;
#X obj 250 83 upf.delay_ui;
#X obj 431 129 upf.fm_ui;
#X obj 567 110 upf.mixer_synth;
#X obj 1034 106 declare -path ./../externals/automatism;
#N canvas 61 65 1619 963 osc 0;
#X obj 60 167 oscparse;
#X obj 60 196 list trim;
#X msg 45 67 listen 1337;
#X obj 45 145 netreceive -u -b 1337;
#X obj 45 29 loadbang;
#X obj 99 678 makenote 100 1000;
#X obj 99 787 s client_note;
#X obj 99 723 pack 0 0;
#X obj 648 199 / 127;
#X obj 696 199 / 127;
#X obj 743 199 / 127;
#X obj 789 199 / 127;
#X obj 831 197 / 127;
#X obj 878 198 / 127;
#X obj 926 198 / 127;
#X obj 650 301 s harmonics;
#X obj 99 455 queue 20;
#X obj 60 313 bng 15 250 50 0 empty empty empty 17 7 0 10 -262144 -1
-1;
#X obj 60 273 t b l, f 12;
#X obj 649 244 pack 0 0 0 0 0 0 0 0 0 0 0 0 0 0 0 0, f 100;
#X obj 977 197 / 127;
#X obj 1025 197 / 127;
#X obj 1072 197 / 127;
#X obj 1118 197 / 127;
#X obj 1160 195 / 127;
#X obj 1207 196 / 127;
#X obj 1255 196 / 127;
#X obj 1314 195 / 127;
#X obj 99 510 unpack 0 0 0 0 0 0 0 0 0 0 0 0 0 0 0 0 0 0 0 0 0 0 0
0 0, f 202;
#X obj 1474 590 pack 0 0 0;
#X obj 1472 637 s modes;
#X obj 1353 637 s feed_internal;
#X obj 1352 593 / 127;
#X obj 1185 736 s fm_mod;
#X obj 1360 779 s fm_index;
#X obj 1186 693 mco.scale 0 127 200 8000;
#X obj 1355 730 mco.scale 0 127 1 4000;
#X obj 119 597 mco.scale 0 127 60 127 0;
#X obj 214 643 mco.scale 0 127 1000 3000;
#X obj 60 235 route distance trigger;
#X obj 322 467 s mediation_velocity;
#X obj 315 335 t b b;
#X obj 315 304 sel 1;
#X msg 315 411 0;
#X obj 317 379 del 4000;
#X msg 403 384 1;
#X obj 403 642 mco.scale 0 127 500 10000;
#X obj 404 710 s med_tempo;
#X obj 587 641 / 127;
#X obj 589 714 s med_freeze;
#X obj 810 750 pack 0 0 0 0 0 0 0;
#X connect 0 0 1 0;
#X connect 1 0 39 0;
#X connect 2 0 3 0;
#X connect 3 0 0 0;
#X connect 4 0 2 0;
#X connect 5 0 7 0;
#X connect 5 1 7 1;
#X connect 7 0 6 0;
#X connect 8 0 19 0;
#X connect 9 0 19 1;
#X connect 10 0 19 2;
#X connect 11 0 19 3;
#X connect 12 0 19 4;
#X connect 13 0 19 5;
#X connect 14 0 19 6;
#X connect 16 0 28 0;
#X connect 17 0 16 0;
#X connect 18 0 17 0;
#X connect 18 1 16 0;
#X connect 19 0 15 0;
#X connect 20 0 19 7;
#X connect 21 0 19 8;
#X connect 22 0 19 9;
#X connect 23 0 19 10;
#X connect 24 0 19 11;
#X connect 25 0 19 12;
#X connect 26 0 19 13;
#X connect 27 0 19 14;
#X connect 28 0 5 0;
#X connect 28 1 37 0;
#X connect 28 2 38 0;
#X connect 28 3 46 0;
#X connect 28 4 48 0;
#X connect 28 19 35 0;
#X connect 28 20 36 0;
#X connect 28 21 32 0;
#X connect 28 22 29 0;
#X connect 28 23 29 1;
#X connect 28 24 29 2;
#X connect 29 0 30 0;
#X connect 32 0 31 0;
#X connect 35 0 33 0;
#X connect 36 0 34 0;
#X connect 37 0 5 1;
#X connect 38 0 5 2;
#X connect 39 0 18 0;
#X connect 39 1 42 0;
#X connect 41 0 44 0;
#X connect 41 1 45 0;
#X connect 42 0 41 0;
#X connect 43 0 40 0;
#X connect 44 0 43 0;
#X connect 45 0 40 0;
#X connect 46 0 47 0;
#X connect 48 0 49 0;
#X restore 1167 195 pd osc;
#X obj 1034 129 declare -path ./../abstractions/final;
#X obj 567 110 upf.sequencer_mixer_v2;
