#N canvas 719 100 702 684 12;
#X obj 166 183 vline~;
#X msg 166 153 \$1 10;
#X obj 166 113 mtof;
#X obj 165 8 inlet;
#X obj 170 540 +~;
#X obj 239 474 osc~;
#X obj 242 449 hsl 128 15 0 20 0 0 empty empty empty -2 -8 0 10 -262144
-1 -1 6350 1;
#X obj 239 503 *~;
#X obj 299 351 mtof;
#X floatatom 166 39 5 0 0 0 - - -;
#X floatatom 256 176 5 0 0 0 - - -;
#X obj 279 254 i;
#X obj 298 286 +;
#X floatatom 298 317 5 0 0 0 - - -;
#X obj 299 382 -;
#X obj 256 213 t b b i, f 9;
#X obj 241 253 f;
#X floatatom 299 410 5 0 0 0 - - -;
#X obj 166 65 change;
#X obj 256 144 t b;
#X obj 170 590 outlet~;
#X obj 426 409 r v_freq;
#X obj 356 97 r v_tones;
#X obj 336 146 - 4;
#X connect 0 0 4 0;
#X connect 1 0 0 0;
#X connect 2 0 1 0;
#X connect 2 0 16 1;
#X connect 3 0 9 0;
#X connect 4 0 20 0;
#X connect 5 0 7 0;
#X connect 6 0 5 0;
#X connect 7 0 4 1;
#X connect 8 0 14 0;
#X connect 9 0 18 0;
#X connect 10 0 15 0;
#X connect 11 0 12 0;
#X connect 12 0 13 0;
#X connect 13 0 8 0;
#X connect 14 0 17 0;
#X connect 15 0 16 0;
#X connect 15 1 11 0;
#X connect 15 2 12 1;
#X connect 16 0 14 1;
#X connect 17 0 7 1;
#X connect 18 0 2 0;
#X connect 18 0 19 0;
#X connect 18 0 11 1;
#X connect 19 0 10 0;
#X connect 21 0 6 0;
#X connect 22 0 23 0;
#X connect 23 0 10 0;
