#N canvas 0 23 986 517 12;
#X obj 121 105 upf.additive~;
#X obj 233 104 upf.fm~;
#X obj 119 28 inlet;
#X obj 126 348 *~;
#X obj 158 304 vline~;
#X obj 255 306 vline~;
#X obj 231 347 *~;
#X obj 365 308 vline~;
#X obj 341 349 *~;
#X obj 343 106 upf.sottrattiva~;
#X obj 586 83 r modes;
#X obj 586 118 unpack 0 0 0;
#X msg 158 268 \$1 20;
#X msg 255 270 \$1 20;
#X msg 366 272 \$1 20;
#X obj 172 467 outlet~;
#X obj 170 434 *~ 0.33;
#X connect 1 0 6 0;
#X connect 2 0 0 0;
#X connect 2 0 1 0;
#X connect 2 0 9 0;
#X connect 3 0 16 0;
#X connect 4 0 3 1;
#X connect 5 0 6 1;
#X connect 6 0 16 0;
#X connect 7 0 8 1;
#X connect 8 0 16 0;
#X connect 10 0 11 0;
#X connect 11 0 12 0;
#X connect 11 1 13 0;
#X connect 11 2 14 0;
#X connect 12 0 4 0;
#X connect 13 0 5 0;
#X connect 14 0 7 0;
#X connect 16 0 15 0;
