#N canvas 51 203 1264 626 12;
#N canvas 0 0 450 300 (subpatch) 0;
#X array sample_00 8256 float 0;
#X coords 0 1 8255 -1 60 40 1 0 0;
#X restore 37 41 graph;
#X obj 556 121 soundfiler;
#X floatatom 556 143 0 0 0 0 - - -;
#X msg 556 87 read -resize ../sounds/909-samples/bd01.wav sample_00
\;;
#X obj 556 50 loadbang;
#X obj 252 90 tabplay~ sample_00;
#X obj 252 46 r sample_00;
#X obj 252 123 throw~ sign_00;
#X obj 556 252 soundfiler;
#X floatatom 556 274 0 0 0 0 - - -;
#X obj 556 181 loadbang;
#X obj 254 172 r sample_01;
#X obj 254 216 tabplay~ sample_01;
#X obj 254 249 throw~ sign_01;
#N canvas 0 23 450 300 (subpatch) 0;
#X array sample_01 21738 float 0;
#X coords 0 1 21737 -1 60 40 1 0 0;
#X restore 37 99 graph;
#X msg 556 218 read -resize ../sounds/909-samples/oh02.wav sample_01
\;;
#X obj 556 376 soundfiler;
#X floatatom 556 398 0 0 0 0 - - -;
#X obj 556 305 loadbang;
#X obj 556 507 soundfiler;
#X floatatom 556 529 0 0 0 0 - - -;
#X obj 556 436 loadbang;
#N canvas 0 23 450 300 (subpatch) 0;
#X array sample_02 14038 float 0;
#X coords 0 1 14037 -1 60 40 1 0 0;
#X restore 37 161 graph;
#N canvas 0 23 450 300 (subpatch) 0;
#X array sample_03 25600 float 0;
#X coords 0 1 25599 -1 60 40 1 0 0;
#X restore 39 218 graph;
#X msg 556 342 read -resize ../sounds/909-samples/sd01.wav sample_02
\;;
#X msg 556 473 read -resize ../sounds/909-samples/cp02.wav sample_03
\;;
#X obj 255 283 r sample_02;
#X obj 255 394 r sample_03;
#X obj 255 327 tabplay~ sample_02;
#X obj 255 360 throw~ sign_02;
#X obj 255 438 tabplay~ sample_03;
#X obj 255 471 throw~ sign_03;
#X connect 1 0 2 0;
#X connect 3 0 1 0;
#X connect 4 0 3 0;
#X connect 5 0 7 0;
#X connect 6 0 5 0;
#X connect 8 0 9 0;
#X connect 10 0 15 0;
#X connect 11 0 12 0;
#X connect 12 0 13 0;
#X connect 15 0 8 0;
#X connect 16 0 17 0;
#X connect 18 0 24 0;
#X connect 19 0 20 0;
#X connect 21 0 25 0;
#X connect 24 0 16 0;
#X connect 25 0 19 0;
#X connect 26 0 28 0;
#X connect 27 0 30 0;
#X connect 28 0 29 0;
#X connect 30 0 31 0;
#X coords 0 -1 1 1 100 240 2 20 20;
